# xmcd CD database file
#
# Track frame offsets:
#	150
#	29792
#	30794
#	51841
#	99124
#	127729
#	129023
#	166352
#	193068
#	233652
#	262043
#
# Disc length: 3995 seconds
#
# Revision: 0
# Processed by: cddbd v1.4PL0 Copyright (c) Steve Scherf et al.
# Submitted via: CDex 1.51
#
DISCID=820f990b
DTITLE=Joris Teepe Quintet - For Adults Only
DYEAR=1998
DGENRE=Jazz
TTITLE0=Chelsea Bridge
TTITLE1=Introduction
TTITLE2=Five Bears
TTITLE3=Second Avenue Story
TTITLE4=I Do It For Your Love
TTITLE5=Introduction
TTITLE6=Blues for Claudia
TTITLE7=Brother Braden
TTITLE8=For Adults Only
TTITLE9=You Don't Know What Love Is
TTITLE10=Up Jumped Spring
EXTD=YEAR: 1998
EXTT0=
EXTT1=
EXTT2=
EXTT3=
EXTT4=
EXTT5=
EXTT6=
EXTT7=
EXTT8=
EXTT9=
EXTT10=
PLAYORDER=
